<?xml version="1.0" encoding="UTF-8" standalone="no"?>
<!-- Created with Inkscape (http://www.inkscape.org/) -->

<svg
   width="15.812204mm"
   height="15.927146mm"
   viewBox="0 0 15.812205 15.927145"
   version="1.1"
   id="svg1"
   xml:space="preserve"
   inkscape:version="1.4 (86a8ad7, 2024-10-11)"
   sodipodi:docname="door_with_key.svg"
   xmlns:inkscape="http://www.inkscape.org/namespaces/inkscape"
   xmlns:sodipodi="http://sodipodi.sourceforge.net/DTD/sodipodi-0.dtd"
   xmlns="http://www.w3.org/2000/svg"
   xmlns:svg="http://www.w3.org/2000/svg"><sodipodi:namedview
     id="namedview1"
     pagecolor="#505050"
     bordercolor="#ffffff"
     borderopacity="1"
     inkscape:showpageshadow="0"
     inkscape:pageopacity="0"
     inkscape:pagecheckerboard="1"
     inkscape:deskcolor="#505050"
     inkscape:document-units="mm"
     inkscape:zoom="8.6174175"
     inkscape:cx="43.400474"
     inkscape:cy="33.82684"
     inkscape:window-width="1920"
     inkscape:window-height="1057"
     inkscape:window-x="-8"
     inkscape:window-y="-8"
     inkscape:window-maximized="1"
     inkscape:current-layer="layer1" /><defs
     id="defs1" /><g
     inkscape:label="Layer 1"
     inkscape:groupmode="layer"
     id="layer1"
     transform="matrix(0.13392098,0,0,0.11227639,-8.5968188,-7.8236529)"
     style="stroke-width:2.15772;stroke-dasharray:none"><path
       d="M 105,41 V 439 H 407 V 41 Z"
       class="selected"
       fill="#ffffff"
       fill-opacity="1"
       stroke="#000000"
       stroke-opacity="1"
       stroke-width="8"
       id="path2-8"
       transform="matrix(0.26458333,0,0,0.26458333,45.957489,81.607743)"
       style="fill:#ffffff;fill-opacity:1;stroke:#000000;stroke-width:8.15511;stroke-dasharray:none;stroke-opacity:1" /><path
       d="m 160,215 c 18.1,0 33,14.9 33,33 0,18.1 -14.9,33 -33,33 -18.1,0 -33,-14.9 -33,-33 0,-18.1 14.9,-33 33,-33 z"
       class=""
       fill="#ffffff"
       fill-opacity="1"
       stroke="#000000"
       stroke-opacity="1"
       stroke-width="8"
       id="path3-2"
       transform="matrix(0.26458333,0,0,0.26458333,45.957489,81.607743)"
       style="fill:#ffffff;fill-opacity:1;stroke:#000000;stroke-width:8.15511;stroke-dasharray:none;stroke-opacity:1" /><path
       id="path7"
       class=""
       d="m 93.189449,329.40039 c -6.31,0.1 -12.419219,0.70039 -18.199219,1.90039 -21.01,4.3 -37.519297,15.59961 -45.779297,32.59961 -8.26,17 -6.970391,36.99922 2.599609,56.19922 9.61,19.4 27.698595,37.50117 51.808595,49.20117 24.180003,11.7 49.581253,14.69883 70.781253,10.29883 21,-4.3 37.49922,-15.59961 45.69922,-32.59961 8.3,-17 7.00039,-36.99922 -2.59961,-56.19922 -9.6,-19.4 -27.70078,-37.50117 -51.80078,-49.20117 -16.6,-8 -33.79883,-11.99922 -49.798833,-12.19922 z m -3.308594,28.19922 c 6.42,0 13.018755,1.5 19.218755,4.5 7.9,3.9 14.3,9.80117 18.5,16.70117 1.8,-0.2 3.7,-0.30078 5.5,-0.30078 6.4,0.1 12.89961,1.59961 19.09961,4.59961 19.7,9.6 30.1,32.10078 21,50.80078 -9.1,18.7 -33.19844,24.40039 -52.89844,14.90039 -7.9,-3.9 -14.3,-9.80117 -18.5,-16.70117 -8.140003,0.9 -16.771409,-0.39883 -24.691409,-4.29883 -19.7,-9.6 -30.009922,-32.10078 -20.919922,-50.80078 6.25,-12.9 19.571406,-19.60039 33.691406,-19.40039 z"
       style="fill:#ffffff;fill-opacity:1;stroke:#000000;stroke-width:10.4715;stroke-dasharray:none;stroke-opacity:1"
       transform="matrix(0.20605512,0,0,0.20605512,99.922067,64.486559)" /><path
       d="m 73,457 v 30 h 366 v -30 z"
       class=""
       fill="#ffffff"
       fill-opacity="1"
       stroke="#000000"
       stroke-opacity="1"
       stroke-width="8"
       id="path5"
       transform="matrix(0.26458333,0,0,0.26458333,45.957489,81.607743)"
       style="fill:#ffffff;fill-opacity:1;stroke:#000000;stroke-width:8.15511;stroke-dasharray:none;stroke-opacity:1" /><path
       d="m 347.7,83.94 -48.2,98.86 45,21.9 7.7,-15.6 -21.8,-28.4 18.8,-38.8 35.7,-0.4 7.7,-15.7 z"
       class=""
       fill="#ffffff"
       fill-opacity="1"
       stroke="#000000"
       stroke-opacity="1"
       stroke-width="10.2724"
       id="path4"
       style="fill:#ffffff;fill-opacity:1;stroke:#000000;stroke-width:10.4715;stroke-dasharray:none;stroke-opacity:1"
       transform="matrix(0.20605512,0,0,0.20605512,99.922067,64.486559)" /><path
       d="m 308.3,82.58 -34.1,70.12 16.1,7.9 24,-49.3 10.2,-20.85 z"
       class=""
       fill="#ffffff"
       fill-opacity="1"
       stroke="#000000"
       stroke-opacity="1"
       stroke-width="10.2724"
       id="path3"
       style="fill:#ffffff;fill-opacity:1;stroke:#000000;stroke-width:10.4715;stroke-dasharray:none;stroke-opacity:1"
       transform="matrix(0.20605512,0,0,0.20605512,99.922067,64.486559)" /><path
       d="m 288.7,30.45 h -1.1 c -0.9,0.1 -1.8,0.21 -2.6,0.45 -3.5,0.96 -6.5,3.01 -9,8.19 L 139.7,319.5 c 4.7,1.7 9.3,3.7 13.9,5.9 4.5,2.2 8.9,4.6 13.1,7.2 L 303,52.23 c 2.5,-5.17 2.3,-8.82 0.9,-12.09 -1.3,-3.27 -4.2,-6.2 -7.8,-7.95 -2.4,-1.15 -5,-1.74 -7.4,-1.74 z"
       class="selected"
       fill="#ffffff"
       fill-opacity="1"
       stroke="#000000"
       stroke-opacity="1"
       stroke-width="10.2724"
       id="path2"
       style="fill:#ffffff;fill-opacity:1;stroke:#000000;stroke-width:10.4715;stroke-dasharray:none;stroke-opacity:1"
       transform="matrix(0.20605512,0,0,0.20605512,99.922067,64.486559)" /></g></svg>
